<svg xmlns="http://www.w3.org/2000/svg" width="1024" height="1024" viewBox="0 0 1024 1024">
  <defs>
    <linearGradient id="bg" x1="120" y1="80" x2="900" y2="940" gradientUnits="userSpaceOnUse">
      <stop stop-color="#f0d184"/>
      <stop offset="1" stop-color="#b88b3f"/>
    </linearGradient>
    <linearGradient id="shield" x1="340" y1="250" x2="690" y2="780" gradientUnits="userSpaceOnUse">
      <stop stop-color="#20231f"/>
      <stop offset="1" stop-color="#090b0b"/>
    </linearGradient>
    <filter id="shadow" x="-30%" y="-30%" width="160%" height="160%">
      <feDropShadow dx="0" dy="42" stdDeviation="42" flood-color="#000" flood-opacity=".35"/>
    </filter>
  </defs>
  <rect x="48" y="48" width="928" height="928" rx="228" fill="#0b0e0e"/>
  <rect x="66" y="66" width="892" height="892" rx="210" fill="none" stroke="url(#bg)" stroke-width="28"/>
  <path d="M512 160 788 264v211c0 184-112 303-276 389-164-86-276-205-276-389V264L512 160Z"
        fill="url(#bg)" filter="url(#shadow)"/>
  <path d="M512 215 736 300v172c0 144-83 244-224 323-141-79-224-179-224-323V300l224-85Z"
        fill="url(#shield)"/>
  <path d="m388 497 82 82 174-187" fill="none" stroke="#edce86" stroke-width="54"
        stroke-linecap="round" stroke-linejoin="round"/>
  <circle cx="512" cy="512" r="414" fill="none" stroke="#fff" stroke-opacity=".08" stroke-width="8"/>
</svg>
